<?xml version="1.0" standalone="no"?>
<!DOCTYPE svg PUBLIC "-//W3C//DTD SVG 20010904//EN"
 "http://www.w3.org/TR/2001/REC-SVG-20010904/DTD/svg10.dtd">
<svg version="1.0" xmlns="http://www.w3.org/2000/svg"
 width="1000.000000pt" height="1000.000000pt" viewBox="0 0 1000.000000 1000.000000"
 preserveAspectRatio="xMidYMid meet">
<metadata>
Created by potrace 1.14, written by Peter Selinger 2001-2017
</metadata>
<g transform="translate(0.000000,1000.000000) scale(0.100000,-0.100000)"
fill="#000000" stroke="none">
<path d="M4764 8659 c-890 -57 -1719 -433 -2355 -1069 -147 -147 -157 -160
-177 -221 -32 -97 -69 -260 -89 -394 -26 -173 -26 -702 0 -895 101 -751 364
-1362 751 -1745 120 -118 244 -211 375 -278 98 -51 275 -117 285 -106 2 2 9
81 15 174 68 1037 298 2120 651 3070 224 601 473 1084 714 1382 36 45 66 84
66 88 0 6 -76 5 -236 -6z"/>
<path d="M5166 8589 c-275 -257 -594 -866 -857 -1639 -273 -798 -464 -1697
-543 -2550 -25 -264 -36 -474 -26 -484 16 -16 356 1 465 24 897 190 1910 1072
3025 2635 63 88 212 306 332 485 178 266 215 327 207 342 -19 35 -314 325
-422 414 -555 457 -1234 750 -1912 823 -55 6 -121 13 -146 16 -46 5 -47 5
-123 -66z"/>
<path d="M7709 6978 c-1173 -1757 -2255 -2806 -3231 -3132 -215 -72 -487 -114
-659 -103 l-86 6 -7 -72 c-4 -40 -4 -177 0 -305 7 -227 8 -234 29 -242 70 -26
629 -91 960 -111 243 -15 870 -6 1105 15 1223 110 2116 450 2614 996 150 164
154 173 195 456 83 567 25 1170 -165 1714 -116 334 -277 644 -487 938 -44 61
-82 112 -83 112 -2 0 -85 -122 -185 -272z"/>
<path d="M1951 7037 c-500 -751 -709 -1672 -581 -2549 21 -144 32 -168 127
-296 280 -377 877 -713 1643 -926 148 -41 380 -96 405 -96 16 0 17 8 12 98 -4
53 -7 190 -7 305 0 178 -2 207 -15 207 -36 0 -239 74 -328 119 -651 335 -1093
1112 -1234 2166 -25 185 -25 751 0 909 9 60 16 110 14 112 -1 1 -18 -21 -36
-49z"/>
<path d="M1537 3798 c162 -468 423 -905 766 -1282 l54 -59 209 19 c235 21 823
25 974 7 47 -6 86 -9 87 -8 2 0 -2 28 -7 61 -6 32 -19 146 -30 253 -11 107
-22 196 -24 199 -2 2 -63 16 -134 32 -475 104 -864 237 -1221 416 -270 135
-537 317 -670 458 -19 20 -38 36 -43 36 -4 0 13 -60 39 -132z"/>
<path d="M8390 3753 c-283 -244 -632 -435 -1068 -587 -641 -222 -1477 -339
-2312 -323 -420 9 -757 36 -1110 92 -80 12 -147 21 -149 18 -6 -5 15 -224 35
-380 l17 -121 66 -12 c306 -52 573 -132 1086 -325 650 -245 955 -339 1405
-435 l135 -29 130 64 c818 403 1448 1092 1791 1959 31 76 54 139 52 141 -2 1
-37 -27 -78 -62z"/>
<path d="M2675 2318 c-77 -6 -142 -12 -144 -14 -8 -8 44 -56 164 -153 230
-185 443 -321 700 -446 140 -68 376 -165 437 -180 l26 -7 -39 124 c-48 150
-110 394 -140 546 -19 97 -25 113 -43 117 -112 24 -677 32 -961 13z"/>
<path d="M3840 2256 c0 -73 113 -495 187 -703 32 -87 40 -102 62 -107 14 -3
80 -17 146 -31 594 -129 1237 -102 1825 76 74 22 137 42 139 44 6 6 -5 9 -189
56 -336 85 -571 163 -1183 393 -412 155 -612 217 -874 270 l-113 23 0 -21z"/>
</g>
</svg>
